<svg width="16" height="63" fill="none" xmlns="http://www.w3.org/2000/svg"><path d="M12.261 56.757l-3.888 2.256v1.68h3.889v2.208h-11.2v-4.48c0-1.034.362-1.914 1.087-2.64a3.576 3.576 0 012.624-1.088c.694 0 1.34.198 1.936.592.587.395 1.03.918 1.328 1.568l4.224-2.48v2.384zm-9.136 3.936h3.312v-2.272c0-.416-.16-.773-.48-1.072a1.706 1.706 0 00-1.184-.448c-.458 0-.848.15-1.168.448-.32.3-.48.656-.48 1.072v2.272zm9.36-11.718c0 1.248-.351 2.272-1.055 3.072-.704.8-1.649 1.2-2.833 1.2H1.061v-2.192h7.36c.587 0 1.051-.165 1.392-.496.342-.34.512-.869.512-1.584 0-.714-.17-1.237-.512-1.568-.34-.34-.805-.512-1.392-.512h-7.36v-2.208h7.536c1.184 0 2.129.4 2.833 1.2.704.8 1.056 1.83 1.056 3.088z" fill="#828282"/><path d="M15.461 38.698H.741v-2.064h14.72v2.064zM10.15 28.35v-4.72h2.113v6.928h-11.2V23.71h2.111v4.64h2.384v-4.24h2.08v4.24h2.513zM1.062 15.593v-2.208h11.2v1.68l-6.848 4.8h6.848v2.208h-11.2v-1.68l6.832-4.8H1.061zM6.245.316h.864c1.6 0 2.896.512 3.889 1.536.992 1.024 1.488 2.346 1.488 3.968 0 1.728-.56 3.162-1.68 4.304-1.131 1.13-2.507 1.696-4.129 1.696-1.632 0-3.013-.56-4.144-1.68C1.403 9.009.837 7.612.837 5.948c0-1.046.24-2 .72-2.864.47-.864 1.1-1.536 1.888-2.016l1.088 1.888c-.458.266-.832.672-1.12 1.216a3.71 3.71 0 00-.432 1.792c0 1.066.352 1.946 1.056 2.64.694.682 1.574 1.024 2.64 1.024 1.056 0 1.931-.347 2.624-1.04.683-.704 1.024-1.632 1.024-2.784 0-.854-.186-1.558-.56-2.112A2.85 2.85 0 008.197 2.54v3.392H6.245V.316z" fill="#000"/></svg>